<svg xmlns="http://www.w3.org/2000/svg" viewBox="0 0 1808 1634" width="1808" height="1634"><defs><linearGradient id="g0" gradientUnits="userSpaceOnUse" x1="0" y1="0" x2="1808" y2="1634" gradientTransform="translate(-282.0,-30.0)"><stop offset="0" stop-color="#B6FF3C"/><stop offset="1" stop-color="#34D6FF"/></linearGradient><linearGradient id="g1" gradientUnits="userSpaceOnUse" x1="0" y1="0" x2="1808" y2="1634" gradientTransform="translate(-1098.0,-546.0)"><stop offset="0" stop-color="#B6FF3C"/><stop offset="1" stop-color="#34D6FF"/></linearGradient></defs><path fill="url(#g0)" transform="translate(282.0,30.0)" d="M0,0 L1032,0 L1038,4 L1045,14 L1049,19 L1051,27 L1051,36 L1049,48 L1041,61 L1035,71 L1028,78 L1021,86 L1019,86 L1017,91 L1012,97 L1008,100 L1006,100 L1004,104 L997,112 L990,121 L987,124 L985,124 L983,128 L976,136 L968,147 L959,156 L953,165 L935,183 L931,189 L927,193 L925,193 L923,197 L916,205 L908,216 L901,224 L895,232 L878,249 L872,258 L854,276 L848,285 L835,299 L833,299 L831,304 L822,314 L815,324 L808,332 L802,340 L785,357 L781,363 L775,368 L773,368 L771,373 L762,383 L749,396 L742,404 L740,404 L738,409 L729,419 L713,435 L707,444 L677,474 L671,483 L658,497 L656,497 L654,502 L645,512 L637,521 L635,521 L633,526 L624,536 L617,546 L584,579 L580,585 L576,589 L574,589 L572,593 L565,601 L539,627 L535,633 L531,637 L529,637 L527,641 L523,646 L519,649 L517,649 L515,653 L508,661 L496,674 L494,674 L492,679 L483,689 L476,696 L470,705 L455,720 L449,727 L443,732 L437,741 L410,768 L406,774 L400,779 L398,779 L396,784 L387,794 L379,803 L377,803 L375,808 L366,818 L359,825 L355,833 L354,839 L633,840 L641,844 L646,850 L653,861 L654,864 L654,876 L650,882 L646,887 L640,898 L632,906 L626,915 L614,928 L608,933 L604,939 L600,943 L598,943 L596,947 L589,955 L582,964 L579,967 L577,967 L575,971 L568,979 L560,987 L554,996 L536,1014 L529,1022 L527,1022 L525,1027 L516,1037 L503,1050 L499,1056 L495,1060 L493,1060 L491,1064 L487,1069 L478,1075 L473,1079 L471,1080 L-174,1080 L-184,1075 L-196,1063 L-201,1053 L-204,1044 L-204,1035 L-200,1021 L-193,1012 L-188,1003 L-183,998 L-176,988 L-171,983 L-162,973 L-157,967 L-150,959 L-148,959 L-146,954 L-139,946 L-137,946 L-135,941 L-126,931 L-119,921 L-110,912 L-104,903 L-100,898 L-94,890 L-88,883 L-81,875 L-79,875 L-77,871 L-70,863 L-64,856 L-57,848 L-55,848 L-53,844 L-46,836 L-40,829 L-34,821 L-17,804 L-11,795 L-4,787 L2,779 L13,768 L20,757 L26,751 L28,751 L30,746 L39,736 L46,726 L51,722 L53,722 L55,718 L62,709 L68,701 L72,698 L74,698 L76,693 L83,685 L85,685 L87,680 L96,670 L101,664 L107,657 L112,655 L114,650 L123,640 L133,630 L139,621 L144,617 L146,617 L148,613 L155,605 L163,594 L170,586 L176,578 L193,561 L199,552 L217,534 L221,528 L225,524 L227,524 L229,520 L236,512 L243,503 L248,499 L250,499 L252,494 L258,488 L260,488 L262,484 L270,472 L289,453 L296,445 L298,445 L300,440 L309,430 L322,417 L326,411 L330,407 L332,407 L334,403 L341,395 L349,384 L356,376 L362,368 L370,360 L377,352 L379,352 L381,347 L390,337 L396,329 L401,325 L403,325 L405,320 L410,315 L411,310 L405,307 L-231,306 L-237,302 L-247,294 L-251,285 L-252,282 L-252,270 L-245,256 L-240,251 L-231,241 L-224,231 L-215,222 L-209,213 L-182,186 L-176,177 L-164,164 L-158,159 L-152,150 L-145,142 L-139,134 L-133,127 L-127,119 L-121,112 L-114,104 L-112,104 L-110,100 L-103,92 L-96,83 L-91,79 L-89,79 L-87,74 L-78,64 L-68,54 L-62,45 L-50,33 L-46,27 L-35,18 L-28,12 L-14,6 L-6,2 Z "/><path fill="url(#g1)" transform="translate(1098.0,546.0)" d="M0,0 L627,0 L633,4 L643,14 L651,33 L651,48 L644,68 L637,76 L629,87 L625,92 L619,100 L611,108 L605,117 L598,125 L591,133 L589,133 L587,138 L583,144 L579,148 L577,148 L575,153 L569,162 L562,170 L555,178 L553,178 L551,182 L544,190 L537,199 L532,203 L530,203 L527,212 L522,217 L520,217 L518,221 L511,229 L503,240 L494,249 L488,258 L475,272 L473,272 L471,277 L466,283 L462,286 L460,286 L458,291 L455,296 L450,301 L442,311 L436,319 L427,329 L425,329 L423,334 L414,344 L407,354 L400,362 L393,370 L391,370 L389,374 L383,383 L378,388 L369,398 L364,404 L358,412 L346,425 L344,425 L342,430 L337,436 L333,439 L331,439 L329,444 L326,449 L321,454 L312,464 L296,480 L290,489 L281,498 L274,506 L272,506 L270,511 L264,517 L262,517 L260,521 L253,529 L241,542 L239,542 L237,547 L228,557 L222,565 L219,568 L217,568 L215,572 L208,580 L202,587 L196,595 L188,603 L181,611 L179,611 L177,616 L169,623 L167,623 L165,628 L156,638 L148,647 L146,647 L144,652 L139,658 L135,661 L133,661 L131,665 L127,670 L123,673 L121,673 L119,677 L112,685 L105,693 L98,701 L91,709 L83,717 L77,726 L64,740 L62,740 L60,745 L51,753 L52,757 L54,758 L660,759 L668,763 L673,768 L679,775 L681,780 L681,792 L676,805 L668,813 L664,819 L660,823 L658,823 L656,827 L652,832 L648,835 L646,835 L644,839 L637,847 L630,856 L625,860 L623,860 L621,865 L615,871 L613,871 L611,875 L607,880 L603,883 L601,883 L599,887 L595,892 L591,895 L589,895 L587,900 L580,908 L578,908 L576,913 L567,923 L560,930 L554,939 L539,954 L532,962 L530,962 L528,967 L520,974 L518,974 L516,979 L508,986 L506,986 L504,991 L495,1001 L482,1014 L475,1022 L473,1022 L471,1027 L463,1034 L455,1041 L440,1049 L426,1056 L288,1057 L282,1059 L156,1059 L150,1057 L-555,1056 L-561,1053 L-571,1042 L-576,1029 L-575,1020 L-571,1010 L-566,1002 L-562,996 L-556,991 L-554,991 L-552,986 L-543,976 L-537,968 L-534,965 L-532,965 L-530,961 L-523,953 L-515,945 L-512,940 L-507,935 L-498,925 L-482,909 L-478,903 L-474,899 L-472,899 L-470,895 L-463,887 L-456,878 L-451,874 L-449,874 L-447,869 L-438,859 L-428,849 L-422,840 L-413,831 L-407,822 L-389,804 L-383,795 L-370,781 L-368,781 L-366,776 L-361,770 L-357,767 L-355,767 L-353,763 L-346,755 L-338,746 L-332,741 L-328,735 L-324,731 L-322,731 L-320,727 L-313,719 L-296,702 L-290,693 L-272,675 L-268,669 L-262,664 L-260,664 L-258,659 L-249,649 L-241,640 L-239,640 L-237,635 L-229,628 L-227,628 L-225,623 L-216,613 L-203,600 L-197,591 L-176,570 L-173,565 L-168,560 L-159,550 L-154,544 L-148,537 L-143,535 L-141,530 L-135,524 L-133,524 L-131,520 L-124,512 L-117,503 L-112,499 L-110,499 L-108,494 L-99,484 L-86,471 L-79,463 L-77,463 L-75,458 L-66,448 L-50,432 L-46,426 L-42,422 L-40,422 L-38,418 L-31,410 L-14,393 L-10,387 L-6,383 L-4,383 L-2,379 L5,371 L17,358 L19,358 L21,353 L27,347 L29,347 L31,343 L38,335 L52,321 L58,312 L91,279 L97,270 L123,244 L124,238 L-168,237 L-178,232 L-187,224 L-189,219 L-189,201 L-185,195 L-181,190 L-175,182 L-164,171 L-157,163 L-155,163 L-153,158 L-144,148 L-138,140 L-135,137 L-133,137 L-131,133 L-124,125 L-117,116 L-114,113 L-112,113 L-110,109 L-103,101 L-95,90 L-88,82 L-86,82 L-84,77 L-75,67 L-69,59 L-64,55 L-62,55 L-60,50 L-54,44 L-52,44 L-50,40 L-43,32 L-32,20 L-24,13 L-13,5 Z "/></svg>