<svg xmlns="http://www.w3.org/2000/svg" viewBox="0 0 1808 1634" width="1808" height="1634"><defs><linearGradient id="g0" gradientUnits="userSpaceOnUse" x1="0" y1="0" x2="1808" y2="1634" gradientTransform="translate(-282.0,-30.0)"><stop offset="0" stop-color="#B6FF3C"/><stop offset="1" stop-color="#34D6FF"/></linearGradient><linearGradient id="g1" gradientUnits="userSpaceOnUse" x1="0" y1="0" x2="1808" y2="1634" gradientTransform="translate(-1098.0,-546.0)"><stop offset="0" stop-color="#B6FF3C"/><stop offset="1" stop-color="#34D6FF"/></linearGradient></defs><path fill="url(#g0)" transform="translate(282.0,30.0)" d="M -3.00 1.00 L -3.00 1.00 Q 0.00 0.00 26.00 0.00 L 1006.00 0.00 L 1006.00 0.00 Q 1032.00 0.00 1040.50 9.50 L 1040.50 9.50 L 1040.50 9.50 Q 1049.00 19.00 1049.00 33.50 L 1049.00 33.50 L 1049.00 33.50 Q 1049.00 48.00 1042.00 59.50 L 1042.00 59.50 L 1042.00 59.50 Q 1035.00 71.00 1017.64 90.36 L 376.36 805.64 L 376.36 805.64 Q 359.00 825.00 356.50 832.00 L 356.50 832.00 L 356.50 832.00 Q 354.00 839.00 380.00 839.09 L 607.00 839.91 L 607.00 839.91 Q 633.00 840.00 643.00 850.50 L 643.00 850.50 L 643.00 850.50 Q 653.00 861.00 653.50 868.50 L 653.50 868.50 L 653.50 868.50 Q 654.00 876.00 640.00 895.50 L 640.00 895.50 L 640.00 895.50 Q 626.00 915.00 608.20 933.95 L 488.80 1061.05 L 488.80 1061.05 Q 471.00 1080.00 445.00 1080.00 L -148.00 1080.00 L -148.00 1080.00 Q -174.00 1080.00 -187.50 1066.50 L -187.50 1066.50 L -187.50 1066.50 Q -201.00 1053.00 -200.50 1037.00 L -200.50 1037.00 L -200.50 1037.00 Q -200.00 1021.00 -188.00 1004.50 L -188.00 1004.50 L -188.00 1004.50 Q -176.00 988.00 -158.98 968.34 L 393.98 329.66 L 393.98 329.66 Q 411.00 310.00 385.00 309.68 L -211.00 302.32 L -211.00 302.32 Q -237.00 302.00 -244.50 292.00 L -244.50 292.00 L -244.50 292.00 Q -252.00 282.00 -248.50 269.00 L -248.50 269.00 L -248.50 269.00 Q -245.00 256.00 -227.95 236.37 L -63.05 46.63 L -63.05 46.63 Q -46.00 27.00 -26.00 14.50 L -26.00 14.50 L -26.00 14.50 Q -6.00 2.00 -3.00 1.00 L -3.00 1.00 Z"/><path fill="url(#g1)" transform="translate(1098.0,546.0)" d="M -6.50 2.50 L -6.50 2.50 Q 0.00 0.00 26.00 0.00 L 601.00 0.00 L 601.00 0.00 Q 627.00 0.00 639.00 16.50 L 639.00 16.50 L 639.00 16.50 Q 651.00 33.00 647.50 50.50 L 647.50 50.50 L 647.50 50.50 Q 644.00 68.00 627.78 88.32 L 585.22 141.68 L 585.22 141.68 Q 569.00 162.00 551.86 181.55 L 68.14 733.45 L 68.14 733.45 Q 51.00 753.00 77.00 753.42 L 642.00 762.58 L 642.00 762.58 Q 668.00 763.00 674.50 771.50 L 674.50 771.50 L 674.50 771.50 Q 681.00 780.00 678.50 792.50 L 678.50 792.50 L 678.50 792.50 Q 676.00 805.00 658.36 824.10 L 488.64 1007.90 L 488.64 1007.90 Q 471.00 1027.00 449.15 1041.08 L 447.85 1041.92 L 447.85 1041.92 Q 426.00 1056.00 400.00 1056.00 L -529.00 1056.00 L -529.00 1056.00 Q -555.00 1056.00 -563.00 1049.00 L -563.00 1049.00 L -563.00 1049.00 Q -571.00 1042.00 -573.00 1031.00 L -573.00 1031.00 L -573.00 1031.00 Q -575.00 1020.00 -568.50 1008.00 L -568.50 1008.00 L -568.50 1008.00 Q -562.00 996.00 -544.49 976.78 L 105.49 263.22 L 105.49 263.22 Q 123.00 244.00 97.01 243.37 L -142.01 237.63 L -142.01 237.63 Q -168.00 237.00 -177.50 230.50 L -177.50 230.50 L -177.50 230.50 Q -187.00 224.00 -188.00 212.50 L -188.00 212.50 L -188.00 212.50 Q -189.00 201.00 -182.00 191.50 L -182.00 191.50 L -182.00 191.50 Q -175.00 182.00 -157.45 162.82 L -30.55 24.18 L -30.55 24.18 Q -13.00 5.00 -6.50 2.50 L -6.50 2.50 Z"/></svg>