<svg xmlns="http://www.w3.org/2000/svg" viewBox="0 0 606 548" width="606" height="548"><path fill="#FFFFFF" transform="translate(108.97727966308594,11.639236450195312)" d="M0 0 C1.43 -0 2.87 -0 4.3 -0.01 C8.23 -0.01 12.16 -0 16.09 0.01 C20.33 0.03 24.57 0.02 28.81 0.02 C36.15 0.02 43.5 0.03 50.84 0.04 C61.46 0.07 72.08 0.08 82.7 0.08 C99.92 0.09 117.15 0.11 134.38 0.13 C151.11 0.16 167.85 0.18 184.58 0.2 C185.61 0.2 186.64 0.2 187.71 0.2 C192.88 0.2 198.06 0.21 203.23 0.21 C246.16 0.24 289.09 0.29 332.02 0.36 C337.92 7.24 337.92 7.24 338.02 11.36 C336.67 20.01 330.57 27.75 324.02 33.36 C323.36 33.36 322.7 33.36 322.02 33.36 C321.75 33.94 321.49 34.52 321.21 35.11 C320.01 37.39 318.61 39.33 317.02 41.36 C316.36 41.36 315.7 41.36 315.02 41.36 C314.8 41.89 314.58 42.42 314.35 42.96 C312.54 46.23 310.15 48.93 307.71 51.74 C306.76 52.85 305.8 53.96 304.85 55.07 C304.38 55.61 303.91 56.15 303.43 56.71 C301.27 59.24 299.15 61.8 297.02 64.36 C296.36 64.36 295.7 64.36 295.02 64.36 C294.77 64.92 294.52 65.48 294.26 66.05 C289.91 74.14 282.59 81.06 276.27 87.68 C273.28 90.85 270.73 94.13 268.25 97.71 C266.42 100.17 264.22 102.22 262.02 104.36 C260.52 106.13 259.04 107.92 257.59 109.74 C252.6 115.88 247.62 121.77 242.02 127.36 C240.54 129.06 239.09 130.78 237.65 132.52 C235.54 134.91 233.28 137.11 231.02 139.36 C228.38 142.09 225.76 144.85 223.15 147.61 C222.47 148.32 221.78 149.04 221.08 149.77 C216.94 154.15 213.13 158.65 209.51 163.46 C207.54 165.98 205.31 168.13 203.02 170.36 C199.13 174.64 195.33 179.01 191.52 183.36 C191.24 183.68 191.24 183.68 189.82 185.3 C188.5 186.81 187.19 188.33 185.88 189.86 C185.16 190.69 184.45 191.51 183.71 192.36 C183.38 192.74 183.38 192.74 181.72 194.67 C180.02 196.36 180.02 196.36 178.02 196.36 C177.9 196.64 177.9 196.64 177.3 198.08 C175.74 200.86 173.83 202.71 171.52 204.92 C168.99 207.36 166.98 209.43 165.02 212.36 C164.36 212.36 163.7 212.36 163.02 212.36 C162.36 213.68 161.7 215 161.02 216.36 C160.36 216.36 159.7 216.36 159.02 216.36 C158.8 216.9 158.57 217.45 158.34 218.01 C156.62 221.08 154.31 223.46 151.9 225.99 C148.31 229.81 144.89 233.67 141.65 237.8 C138.95 241.23 136.19 244.35 133.02 247.36 C128.11 252.17 123.32 257.03 118.85 262.25 C115.99 265.56 113.01 268.75 110.04 271.97 C108.06 274.32 106.57 276.71 105.02 279.36 C105.61 279.36 105.61 279.36 108.56 279.37 C119.55 279.38 130.54 279.42 141.53 279.49 C147.18 279.53 152.83 279.55 158.48 279.56 C163.94 279.56 169.39 279.59 174.84 279.63 C176.92 279.65 179 279.65 181.09 279.65 C184 279.64 186.91 279.67 189.83 279.7 C190.26 279.7 190.26 279.7 192.44 279.68 C196.82 279.76 198.5 279.94 202.04 282.78 C204.94 286.56 205.53 288.57 205.02 293.36 C203.58 295.71 202.21 297.64 200.46 299.74 C200.01 300.3 199.55 300.86 199.09 301.44 C197.75 303.09 196.39 304.73 195.02 306.36 C194.31 307.23 193.6 308.09 192.87 308.98 C189.53 312.94 189.53 312.94 188.02 314.36 C187.36 314.36 186.7 314.36 186.02 314.36 C185.89 314.65 185.89 314.65 185.21 316.11 C184.01 318.39 182.61 320.33 181.02 322.36 C180.36 322.36 179.7 322.36 179.02 322.36 C178.8 322.9 178.58 323.44 178.35 324 C176.6 327.11 174.27 329.54 171.84 332.11 C170.84 333.18 169.84 334.25 168.84 335.33 C168.36 335.84 167.87 336.36 167.38 336.9 C163.92 340.63 160.58 344.48 157.34 348.4 C156.8 349.05 156.26 349.7 155.71 350.36 C155.24 350.94 154.77 351.52 154.28 352.11 C153.02 353.36 153.02 353.36 151.02 353.36 C150.78 353.96 150.53 354.56 150.27 355.17 C148.73 357.87 147.74 358.83 145.02 360.36 C142.06 360.66 139.31 360.78 136.35 360.76 C135.47 360.77 134.58 360.78 133.67 360.78 C130.7 360.8 127.73 360.8 124.76 360.8 C122.63 360.81 120.51 360.82 118.38 360.83 C112.6 360.85 106.81 360.86 101.03 360.86 C96.2 360.87 91.38 360.88 86.55 360.89 C75.16 360.91 63.78 360.92 52.39 360.92 C40.64 360.91 28.9 360.95 17.15 360.99 C7.07 361.03 -3.02 361.05 -13.1 361.05 C-19.12 361.05 -25.15 361.06 -31.17 361.09 C-36.84 361.12 -42.5 361.12 -48.17 361.09 C-50.25 361.09 -52.33 361.1 -54.41 361.12 C-57.25 361.14 -60.08 361.13 -62.92 361.1 C-63.75 361.12 -64.57 361.13 -65.41 361.15 C-70.88 361.05 -73.66 359.63 -77.62 355.87 C-80.12 353.09 -80.96 351 -81 347.26 C-80.66 341.84 -79.34 338.59 -75.98 334.36 C-75.32 334.36 -74.66 334.36 -73.98 334.36 C-73.32 332.71 -72.66 331.06 -71.98 329.36 C-71.32 329.36 -70.66 329.36 -69.98 329.36 C-69.85 329.08 -69.85 329.08 -69.23 327.67 C-67.76 324.96 -65.95 322.72 -63.98 320.36 C-63.32 320.36 -62.66 320.36 -61.98 320.36 C-61.95 320.08 -61.95 320.08 -61.79 318.67 C-60.86 316.03 -59.46 314.82 -57.48 312.9 C-54.53 309.87 -51.94 306.53 -49.29 303.24 C-48.71 302.52 -48.13 301.8 -47.53 301.07 C-45.22 298.22 -43.01 295.42 -40.98 292.36 C-40.32 292.36 -39.66 292.36 -38.98 292.36 C-38.73 291.8 -38.48 291.25 -38.23 290.67 C-36.76 287.96 -34.95 285.72 -32.98 283.36 C-32.32 283.36 -31.66 283.36 -30.98 283.36 C-30.74 282.81 -30.51 282.25 -30.27 281.68 C-28.65 278.78 -26.63 276.65 -24.35 274.24 C-18.58 267.99 -13.15 261.54 -8.29 254.55 C-6.06 251.48 -3.69 249 -0.98 246.36 C0.38 244.71 1.72 243.05 3.02 241.36 C3.68 241.36 4.34 241.36 5.02 241.36 C5.29 240.78 5.56 240.21 5.84 239.61 C7.04 237.33 8.43 235.39 10.02 233.36 C10.68 233.36 11.34 233.36 12.02 233.36 C12.08 232.8 12.15 232.25 12.21 231.67 C13.36 228.4 15.53 226.74 18.02 224.36 C18.68 223.54 19.34 222.71 20.02 221.86 C22.19 219.15 24.57 216.81 27.02 214.36 C28.86 212.23 30.67 210.09 32.47 207.93 C32.98 207.42 33.5 206.9 34.02 206.36 C34.68 206.36 35.34 206.36 36.02 206.36 C36.27 205.8 36.52 205.24 36.78 204.67 C41.2 196.45 48.66 189.45 55.04 182.69 C57.26 180.32 59.22 178.07 61.02 175.36 C61.68 175.36 62.34 175.36 63.02 175.36 C63.28 174.79 63.54 174.22 63.8 173.63 C65.14 171.15 66.67 169.23 68.52 167.11 C69.13 166.4 69.74 165.7 70.37 164.97 C72.02 163.36 72.02 163.36 74.02 163.36 C74.21 162.68 74.39 162 74.59 161.3 C76.27 157.86 78.35 155.87 81.09 153.25 C84.91 149.52 88.33 145.41 91.73 141.3 C92.26 140.66 92.79 140.02 93.34 139.36 C93.81 138.78 94.28 138.21 94.76 137.61 C96.02 136.36 96.02 136.36 98.02 136.36 C98.27 135.81 98.51 135.25 98.76 134.68 C102.82 127.18 109.47 120.75 115.17 114.44 C116.96 112.43 118.68 110.37 120.4 108.3 C121.26 107.33 122.13 106.36 123.02 105.36 C123.68 105.36 124.34 105.36 125.02 105.36 C125.02 104.7 125.02 104.04 125.02 103.36 C123.91 103.36 122.81 103.36 121.66 103.36 C94.71 103.32 67.75 103.26 40.79 103.18 C27.76 103.14 14.72 103.1 1.69 103.09 C-9.68 103.08 -21.04 103.05 -32.4 103.01 C-38.41 102.98 -44.43 102.97 -50.45 102.97 C-56.11 102.97 -61.77 102.95 -67.43 102.92 C-69.51 102.91 -71.59 102.91 -73.67 102.91 C-76.5 102.92 -79.34 102.9 -82.18 102.88 C-83 102.89 -83.83 102.9 -84.68 102.9 C-88.64 102.84 -90.55 102.63 -93.98 100.47 C-96.21 98.12 -96.69 97.04 -96.91 93.86 C-96.99 93.11 -97.06 92.36 -97.13 91.58 C-96.96 89.07 -96.24 87.52 -94.98 85.36 C-94.32 85.36 -93.66 85.36 -92.98 85.36 C-92.75 84.83 -92.52 84.29 -92.29 83.74 C-90.56 80.6 -88.31 78 -85.98 75.3 C-85.49 74.73 -85 74.16 -84.5 73.57 C-79.77 68.06 -74.88 62.71 -69.98 57.36 C-63.58 50.34 -57.8 42.86 -51.98 35.36 C-51.32 35.36 -50.66 35.36 -49.98 35.36 C-49.73 34.8 -49.48 34.23 -49.23 33.65 C-47.76 30.96 -45.99 28.99 -43.91 26.74 C-43.51 26.3 -43.51 26.3 -41.49 24.09 C-40.66 23.19 -39.83 22.29 -38.98 21.36 C-37.39 19.59 -35.81 17.82 -34.23 16.05 C-23.46 4.1 -16.35 -0.11 0 0 Z "/><path fill="#FFFFFF" transform="translate(375.3374938964844,183.84609985351562)" d="M0 0 C0.43 -0 0.43 -0 2.61 -0.01 C5.5 -0.03 8.4 -0.03 11.29 -0.04 C13.36 -0.05 15.44 -0.06 17.51 -0.06 C24.32 -0.09 31.13 -0.11 37.94 -0.12 C40.28 -0.12 42.62 -0.13 44.96 -0.14 C54.7 -0.16 64.44 -0.18 74.18 -0.19 C88.15 -0.2 102.12 -0.24 116.1 -0.29 C125.91 -0.33 135.73 -0.35 145.55 -0.36 C151.42 -0.36 157.28 -0.37 163.15 -0.41 C168.67 -0.44 174.18 -0.44 179.7 -0.43 C181.73 -0.43 183.75 -0.44 185.78 -0.46 C188.54 -0.48 191.31 -0.47 194.07 -0.45 C194.88 -0.47 195.68 -0.48 196.51 -0.5 C200.57 -0.44 202.41 -0.05 205.62 2.54 C209.37 7.34 210.19 11.07 209.66 17.15 C207.89 23.31 204.13 27.5 200.03 32.35 C196.78 36.19 193.72 40.17 190.66 44.15 C190 44.15 189.34 44.15 188.66 44.15 C188 45.8 187.34 47.45 186.66 49.15 C186 49.15 185.34 49.15 184.66 49.15 C184.42 49.88 184.17 50.6 183.91 51.34 C182.55 54.4 180.83 56.62 178.66 59.15 C178 59.15 177.34 59.15 176.66 59.15 C176.44 59.71 176.21 60.27 175.98 60.84 C174.31 63.78 172.04 65.77 169.66 68.15 C168.35 70.47 168.35 70.47 167.66 72.15 C167 72.15 166.34 72.15 165.66 72.15 C165.44 72.67 165.22 73.19 164.99 73.72 C163.13 77.13 160.76 80.05 158.35 83.09 C157.88 83.7 157.4 84.31 156.91 84.93 C154.03 88.59 151.11 92.02 147.66 95.15 C147 95.15 146.34 95.15 145.66 95.15 C145.33 96.47 145 97.79 144.66 99.15 C144 99.15 143.34 99.15 142.66 99.15 C142.42 99.69 142.17 100.23 141.91 100.78 C139.15 106.03 135.83 109.98 131.66 114.15 C129.27 117.11 126.96 120.12 124.66 123.15 C124 123.15 123.34 123.15 122.66 123.15 C122 124.8 121.34 126.45 120.66 128.15 C120 128.15 119.34 128.15 118.66 128.15 C118.4 128.72 118.14 129.29 117.87 129.88 C114.65 135.95 109.81 141.6 104.66 146.15 C104 146.15 103.34 146.15 102.66 146.15 C102.33 147.47 102 148.79 101.66 150.15 C101 150.15 100.34 150.15 99.66 150.15 C99.44 150.69 99.22 151.23 98.99 151.79 C97.22 154.95 94.83 157.42 92.35 160.03 C88.65 163.97 85.09 167.97 81.66 172.15 C81 172.15 80.34 172.15 79.66 172.15 C79.43 172.71 79.19 173.27 78.94 173.84 C77.36 176.7 75.39 178.82 73.16 181.22 C70.76 183.81 68.63 186.2 66.66 189.15 C66 189.15 65.34 189.15 64.66 189.15 C64.41 189.71 64.16 190.27 63.9 190.85 C60.9 196.45 56.5 201.92 51.48 205.84 C48.63 208.18 46.93 210.42 44.89 213.44 C43.07 215.98 40.99 218.08 38.66 220.15 C38 220.15 37.34 220.15 36.66 220.15 C36 221.47 35.34 222.79 34.66 224.15 C34 224.15 33.34 224.15 32.66 224.15 C32.39 224.73 32.13 225.31 31.85 225.9 C30.65 228.19 29.25 230.13 27.66 232.15 C27 232.15 26.34 232.15 25.66 232.15 C25.54 232.43 25.54 232.43 24.9 233.85 C21.25 240.66 15.82 246.54 9.66 251.15 C9.66 251.48 9.66 251.81 9.66 252.15 C10.71 252.16 11.76 252.16 12.84 252.17 C38.35 252.27 63.85 252.38 89.35 252.49 C101.69 252.55 114.02 252.6 126.35 252.65 C137.1 252.69 147.85 252.74 158.59 252.79 C164.28 252.82 169.98 252.84 175.67 252.86 C181.02 252.88 186.38 252.91 191.73 252.93 C193.7 252.94 195.67 252.95 197.64 252.96 C200.32 252.97 203 252.98 205.68 253 C206.47 253 207.25 253 208.07 253 C213.43 253.04 213.43 253.04 215.66 254.15 C215.66 254.81 215.66 255.47 215.66 256.15 C216.65 256.48 217.64 256.81 218.66 257.15 C220.42 260.66 219.6 264.44 218.66 268.15 C217.2 270.53 215.66 272.16 213.66 274.15 C213 274.15 212.34 274.15 211.66 274.15 C211 275.47 210.34 276.79 209.66 278.15 C209 278.15 208.34 278.15 207.66 278.15 C207.4 278.73 207.15 279.3 206.88 279.89 C205.55 282.37 204.01 284.29 202.16 286.4 C201.55 287.11 200.95 287.82 200.32 288.54 C198.66 290.15 198.66 290.15 196.66 290.15 C196 291.47 195.34 292.79 194.66 294.15 C194 294.15 193.34 294.15 192.66 294.15 C192 295.47 191.34 296.79 190.66 298.15 C190 298.15 189.34 298.15 188.66 298.15 C188.6 298.71 188.54 299.27 188.48 299.84 C187.33 303.11 185.14 304.74 182.66 307.15 C173.81 316.65 173.81 316.65 169.91 321.53 C167.86 323.92 165.72 325.79 163.26 327.75 C159.45 331.1 156.3 335.18 153.06 339.08 C147.85 345.31 141.7 351.12 133.4 352.54 C130.9 352.71 128.43 352.76 125.93 352.76 C124.98 352.78 124.03 352.8 123.05 352.81 C120 352.86 116.96 352.88 113.91 352.9 C112.01 352.93 110.11 352.96 108.2 352.99 C94.89 353.19 81.57 353.17 68.25 353.16 C66.33 353.16 64.41 353.16 62.48 353.16 C57.29 353.16 52.09 353.16 46.9 353.16 C43.66 353.15 40.43 353.15 37.2 353.15 C8.02 353.14 -21.16 353.1 -50.34 353.03 C-53.78 353.02 -57.21 353.01 -60.64 353 C-61.32 353 -62 353 -62.71 353 C-73.88 352.97 -85.05 352.96 -96.22 352.96 C-107.78 352.95 -119.34 352.93 -130.9 352.89 C-137.35 352.87 -143.81 352.86 -150.26 352.87 C-156.29 352.88 -162.33 352.86 -168.36 352.83 C-170.57 352.82 -172.78 352.82 -175 352.83 C-178.01 352.84 -181.02 352.82 -184.03 352.79 C-184.91 352.8 -185.79 352.81 -186.69 352.83 C-191.04 352.75 -192.8 352.57 -196.35 349.82 C-198.94 346.34 -199.48 344.51 -199.34 340.15 C-197.11 334.48 -193.81 330.27 -189.34 326.15 C-188.31 324.84 -187.3 323.52 -186.34 322.15 C-185.68 322.15 -185.02 322.15 -184.34 322.15 C-184.09 321.6 -183.84 321.04 -183.59 320.47 C-182.12 317.75 -180.31 315.52 -178.34 313.15 C-177.68 313.15 -177.02 313.15 -176.34 313.15 C-176.09 312.59 -175.84 312.03 -175.59 311.45 C-174.12 308.76 -172.37 306.69 -170.34 304.4 C-169.64 303.6 -168.93 302.81 -168.21 301.98 C-166.34 300.15 -166.34 300.15 -164.34 300.15 C-164.09 299.58 -163.83 299.01 -163.58 298.42 C-162.17 295.84 -160.53 293.99 -158.52 291.84 C-154.55 287.5 -150.64 283.1 -146.77 278.65 C-146.22 278.01 -145.66 277.37 -145.08 276.71 C-141.92 273.04 -138.84 269.33 -135.84 265.53 C-133.18 262.16 -130.56 259 -127.34 256.15 C-126.68 256.15 -126.02 256.15 -125.34 256.15 C-125.08 255.58 -124.82 255.01 -124.56 254.42 C-123.22 251.94 -121.69 250.02 -119.84 247.9 C-119.23 247.2 -118.62 246.49 -117.99 245.76 C-116.34 244.15 -116.34 244.15 -114.34 244.15 C-114.07 243.56 -113.8 242.97 -113.53 242.37 C-112.33 240.13 -111.07 238.59 -109.33 236.76 C-108.74 236.14 -108.15 235.52 -107.54 234.87 C-106.92 234.22 -106.29 233.57 -105.65 232.9 C-104.37 231.56 -103.1 230.21 -101.83 228.86 C-101.22 228.21 -100.61 227.57 -99.98 226.91 C-96.45 223.15 -93.1 219.24 -89.77 215.3 C-89.25 214.69 -88.74 214.09 -88.21 213.47 C-87.78 212.95 -87.34 212.43 -86.89 211.89 C-84.8 209.55 -82.56 207.37 -80.34 205.15 C-77.9 202.61 -75.49 200.04 -73.09 197.47 C-72.77 197.13 -72.77 197.13 -71.16 195.42 C-70.55 194.77 -69.95 194.12 -69.32 193.45 C-68.77 192.87 -68.22 192.28 -67.66 191.68 C-66.34 190.15 -66.34 190.15 -65.34 188.15 C-64.68 188.15 -64.02 188.15 -63.34 188.15 C-63.09 187.6 -62.84 187.04 -62.59 186.47 C-60.24 182.13 -56.99 178.44 -53.34 175.15 C-52.68 175.15 -52.02 175.15 -51.34 175.15 C-51.1 174.59 -50.86 174.03 -50.61 173.46 C-49.07 170.67 -47.19 168.61 -45.02 166.28 C-42.48 163.51 -39.96 160.76 -37.59 157.84 C-35.3 155.11 -32.85 152.67 -30.34 150.15 C-28.25 147.76 -26.17 145.36 -24.11 142.95 C-23.52 142.36 -22.94 141.76 -22.34 141.15 C-21.68 141.15 -21.02 141.15 -20.34 141.15 C-20.09 140.59 -19.84 140.03 -19.59 139.45 C-18.12 136.76 -16.37 134.69 -14.34 132.4 C-13.64 131.6 -12.93 130.81 -12.21 129.98 C-10.34 128.15 -10.34 128.15 -8.34 128.15 C-8.08 127.58 -7.82 127.01 -7.56 126.42 C-6.22 123.94 -4.69 122.02 -2.84 119.9 C-2.23 119.2 -1.62 118.49 -0.99 117.76 C0.66 116.15 0.66 116.15 2.66 116.15 C2.93 115.56 3.2 114.98 3.47 114.37 C4.68 112.12 5.96 110.56 7.72 108.72 C8.33 108.08 8.94 107.43 9.56 106.77 C9.89 106.43 9.89 106.43 11.54 104.72 C12.89 103.29 14.25 101.85 15.61 100.42 C16.29 99.71 16.97 98.99 17.67 98.26 C20.6 95.16 23.51 92.04 26.41 88.9 C26.9 88.38 27.39 87.86 27.89 87.32 C30.32 84.7 32.55 82.03 34.66 79.15 C33.43 79.16 32.2 79.17 30.94 79.17 C19.36 79.23 7.78 79.28 -3.8 79.31 C-9.76 79.32 -15.71 79.35 -21.66 79.38 C-27.41 79.41 -33.15 79.43 -38.9 79.44 C-41.09 79.44 -43.28 79.45 -45.47 79.47 C-48.54 79.49 -51.61 79.5 -54.68 79.49 C-55.59 79.51 -56.5 79.52 -57.43 79.53 C-62.21 79.5 -65.48 79.31 -69.34 76.15 C-71.05 72.73 -71.26 69.79 -70.34 66.15 C-66.41 60.16 -61.38 55.2 -56.34 50.15 C-55.31 48.84 -54.3 47.52 -53.34 46.15 C-52.68 46.15 -52.02 46.15 -51.34 46.15 C-51.07 45.58 -50.8 45 -50.52 44.4 C-49.32 42.12 -47.93 40.18 -46.34 38.15 C-45.68 38.15 -45.02 38.15 -44.34 38.15 C-44.21 37.89 -44.21 37.89 -43.59 36.53 C-40.83 31.29 -37.55 27.27 -33.34 23.15 C-31.5 21.03 -29.69 18.89 -27.89 16.73 C-27.38 16.21 -26.86 15.69 -26.34 15.15 C-25.68 15.15 -25.02 15.15 -24.34 15.15 C-24.22 14.88 -24.22 14.88 -23.65 13.47 C-18.33 4.09 -10.33 0.01 0 0 Z "/></svg>